<?xml version="1.0" encoding="utf-8"?>
<!-- Generator: Adobe Illustrator 22.1.0, SVG Export Plug-In . SVG Version: 6.00 Build 0)  -->
<svg version="1.1" id="Original" xmlns="http://www.w3.org/2000/svg" xmlns:xlink="http://www.w3.org/1999/xlink" x="0px" y="0px"
	 viewBox="0 0 390 154.5" style="enable-background:new 0 0 390 154.5;" xml:space="preserve">
<style type="text/css">
	.st0{fill:#707071;}
	.st1{fill:#58595B;}
	.st2{fill:#F99D27;}
	.st3{fill:#FFFFFF;}
</style>
<g>
	<path class="st0" d="M362.1,255.3c0,0.1,0,0.1,0,0.2C362.1,255.5,362.1,255.3,362.1,255.3z"/>
</g>
<g>
	<g>
		<path class="st1" d="M215.2,74.4c-1.5,0-3-0.2-4.4-0.6c-1.4-0.4-2.7-0.9-3.9-1.7c-1.2-0.7-2.3-1.6-3.3-2.6c-1-1-1.8-2.1-2.5-3.3
			c-0.7-1.2-1.3-2.5-1.6-3.9c-0.4-1.4-0.6-2.9-0.6-4.4c0-1.5,0.2-3,0.6-4.4c0.4-1.4,0.9-2.7,1.6-3.9c0.7-1.2,1.6-2.3,2.5-3.3
			c1-1,2.1-1.9,3.3-2.6c1.2-0.7,2.5-1.3,3.9-1.7c1.4-0.4,2.9-0.6,4.4-0.6c2.3,0,4.4,0.4,6.4,1.3c2,0.9,3.7,2,5.2,3.5
			c1.5,1.5,2.7,3.2,3.5,5.2c0.9,2,1.3,4.1,1.3,6.4c0,2.3-0.4,4.4-1.3,6.4c-0.9,2-2,3.7-3.5,5.2c-1.5,1.5-3.2,2.7-5.2,3.5
			C219.6,74,217.4,74.4,215.2,74.4z M215.2,46.9c-1.5,0-3,0.3-4.3,0.9c-1.3,0.6-2.5,1.4-3.5,2.4c-1,1-1.8,2.2-2.4,3.5
			c-0.6,1.3-0.9,2.8-0.9,4.4s0.3,3,0.9,4.4c0.6,1.4,1.4,2.6,2.4,3.6c1,1,2.2,1.8,3.5,2.4c1.3,0.6,2.8,0.9,4.3,0.9
			c1.5,0,3-0.3,4.4-0.9c1.4-0.6,2.6-1.4,3.6-2.4c1-1,1.8-2.2,2.4-3.6c0.6-1.4,0.9-2.8,0.9-4.4s-0.3-3-0.9-4.4
			c-0.6-1.4-1.4-2.5-2.4-3.5c-1-1-2.2-1.8-3.6-2.4C218.2,47.2,216.7,46.9,215.2,46.9z"/>
	</g>
	<g>
		<path class="st1" d="M236.8,74.1c-0.7,0-1.3-0.2-1.8-0.7c-0.5-0.5-0.8-1.1-0.8-1.8V44.4c0-0.7,0.3-1.4,0.8-1.8
			c0.5-0.5,1.1-0.7,1.8-0.7h8.3c1.2,0,2.4,0.2,3.5,0.7c1.1,0.5,2,1.1,2.8,1.9c0.8,0.8,1.4,1.8,1.9,2.8c0.5,1.1,0.7,2.2,0.7,3.5
			c0,1.4-0.3,2.7-0.9,3.9c-0.4,0.8-0.9,1.6-1.6,2.3c1,0.8,1.8,1.7,2.5,2.8c0.8,1.4,1.3,3,1.3,4.8c0,1.4-0.3,2.7-0.8,3.8
			c-0.5,1.2-1.2,2.2-2.1,3c-0.9,0.9-2,1.5-3.2,2c-1.2,0.5-2.5,0.7-3.9,0.7H236.8z M245.2,68.9c0.7,0,1.3-0.1,1.9-0.4
			c0.6-0.3,1.1-0.6,1.5-1s0.8-0.9,1-1.5c0.2-0.6,0.4-1.1,0.4-1.8c0-0.6-0.1-1.2-0.4-1.8c-0.3-0.6-0.6-1-1-1.4c-0.4-0.4-1-0.7-1.5-1
			c-0.6-0.2-1.2-0.4-1.9-0.4h-5.8v9.2H245.2z M244.8,54.8c0.6,0,1.1-0.1,1.5-0.3c0.5-0.2,0.9-0.5,1.2-0.9c0.4-0.4,0.6-0.8,0.8-1.3
			c0.2-0.5,0.3-1,0.3-1.5c0-0.5-0.1-1-0.3-1.4c-0.2-0.5-0.5-0.9-0.8-1.2c-0.3-0.4-0.8-0.6-1.2-0.8c-0.5-0.2-1-0.3-1.5-0.3h-5.6v7.8
			H244.8z"/>
	</g>
	<g>
		<path class="st1" d="M276.3,74.1c-0.3,0-0.5,0-0.8-0.1c-0.6-0.2-1.2-0.6-1.5-1.2L267,61.1h-3.4v10.4c0,0.7-0.3,1.3-0.8,1.8
			c-0.5,0.5-1.1,0.7-1.8,0.7c-0.7,0-1.3-0.2-1.8-0.7c-0.5-0.5-0.8-1.1-0.8-1.8V44.4c0-0.7,0.3-1.4,0.8-1.8c0.5-0.5,1.1-0.7,1.8-0.7
			h8c1.4,0,2.7,0.2,3.9,0.7c1.2,0.5,2.3,1.2,3.2,2c0.9,0.9,1.6,1.9,2.1,3.1c0.5,1.2,0.8,2.5,0.8,3.8c0,1.1-0.2,2.2-0.5,3.3
			c-0.4,1-0.9,1.9-1.5,2.7c-0.7,0.8-1.4,1.5-2.3,2.1c-0.6,0.4-1.2,0.7-1.9,0.9l5.9,9.7c0.2,0.3,0.3,0.7,0.3,1c0,0.4,0,0.7-0.1,1
			c-0.1,0.3-0.3,0.6-0.5,0.9c-0.2,0.3-0.5,0.5-0.8,0.7C277.1,74,276.7,74.1,276.3,74.1z M269.1,55.9c0.7,0,1.3-0.1,1.8-0.4
			c0.6-0.2,1.1-0.6,1.5-1c0.4-0.4,0.8-0.9,1-1.4c0.2-0.6,0.4-1.1,0.4-1.7c0-0.6-0.1-1.2-0.4-1.7c-0.2-0.5-0.6-1-1-1.4
			c-0.4-0.4-0.9-0.7-1.5-0.9c-0.6-0.2-1.2-0.3-1.9-0.3h-5.4v8.9H269.1z"/>
	</g>
	<g>
		<path class="st1" d="M296.7,74.4c-1.5,0-3-0.2-4.4-0.6c-1.4-0.4-2.7-0.9-3.9-1.7c-1.2-0.7-2.3-1.6-3.3-2.6c-1-1-1.8-2.1-2.5-3.3
			c-0.7-1.2-1.3-2.5-1.6-3.9c-0.4-1.4-0.6-2.9-0.6-4.4c0-1.5,0.2-3,0.6-4.4c0.4-1.4,0.9-2.7,1.6-3.9c0.7-1.2,1.6-2.3,2.5-3.3
			c1-1,2.1-1.9,3.3-2.6c1.2-0.7,2.5-1.3,3.9-1.7c1.4-0.4,2.9-0.6,4.4-0.6c2.3,0,4.4,0.4,6.4,1.3c2,0.9,3.7,2,5.2,3.5
			c1.5,1.5,2.7,3.2,3.5,5.2c0.9,2,1.3,4.1,1.3,6.4c0,2.3-0.4,4.4-1.3,6.4c-0.9,2-2,3.7-3.5,5.2c-1.5,1.5-3.2,2.7-5.2,3.5
			C301.2,74,299,74.4,296.7,74.4z M296.7,46.9c-1.5,0-3,0.3-4.3,0.9c-1.3,0.6-2.5,1.4-3.5,2.4c-1,1-1.8,2.2-2.4,3.5
			c-0.6,1.3-0.9,2.8-0.9,4.4s0.3,3,0.9,4.4c0.6,1.4,1.4,2.6,2.4,3.6c1,1,2.2,1.8,3.5,2.4c1.3,0.6,2.8,0.9,4.3,0.9
			c1.5,0,3-0.3,4.4-0.9c1.4-0.6,2.6-1.4,3.6-2.4c1-1,1.8-2.2,2.4-3.6c0.6-1.4,0.9-2.8,0.9-4.4s-0.3-3-0.9-4.4
			c-0.6-1.4-1.4-2.5-2.4-3.5c-1-1-2.2-1.8-3.6-2.4C299.8,47.2,298.3,46.9,296.7,46.9z"/>
	</g>
	<g>
		<path class="st1" d="M188.6,74.4L188.6,74.4c-2.3,0-4.5-0.4-6.4-1.3c-1.9-0.8-3.7-2-5.2-3.5c-1.5-1.5-2.7-3.2-3.5-5.2
			c-0.8-2-1.3-4.1-1.3-6.4c0-1.5,0.2-2.8,0.5-4.2c0.4-1.4,0.9-2.7,1.6-3.9c0.6-1.2,1.5-2.3,2.5-3.4c1-1,2.1-1.9,3.3-2.7
			c1.2-0.7,2.5-1.3,4-1.7c1.4-0.4,2.9-0.6,4.5-0.6h6.7c0.7,0,1.4,0.3,1.8,0.8c0.5,0.5,0.7,1.1,0.7,1.9c0,0.7-0.2,1.3-0.7,1.8
			c-0.5,0.5-1.1,0.8-1.8,0.8h-6.7c-1.6,0-3,0.3-4.3,0.9c-1.4,0.6-2.6,1.4-3.6,2.4c-1,1-1.8,2.2-2.4,3.5c-0.6,1.3-0.9,2.8-0.9,4.4
			c0,1.5,0.3,3,0.8,4.3c0.6,1.4,1.3,2.6,2.3,3.6c1,1,2.2,1.9,3.5,2.5c1.3,0.6,2.8,0.9,4.4,0.9h0.1l0,0h6.7c0.7,0,1.4,0.3,1.8,0.8
			c0.5,0.5,0.7,1.1,0.7,1.8c0,0.7-0.2,1.3-0.7,1.8c-0.5,0.5-1.1,0.8-1.8,0.8L188.6,74.4z"/>
	</g>
</g>
<circle class="st2" cx="82.7" cy="78.3" r="67.7"/>
<path class="st1" d="M135.4,49c-4.8-5.5-10.5-10.9-17.1-15.9c-6.6-5-13.3-9.1-19.8-12.2c7.3,0.6,15.2,3.6,22.3,9
	C127.9,35.2,132.9,42.1,135.4,49z"/>
<g>
	<path class="st1" d="M52.7,89.8c0.6,0.6,0.9,1.4,0.9,2.3c0,0.9-0.3,1.7-0.9,2.3c-0.6,0.6-1.4,0.9-2.3,0.9h-3.9
		c-2.3,0-4.5-0.4-6.5-1.3c-2.1-0.9-3.8-2.1-5.4-3.6c-1.5-1.5-2.8-3.3-3.7-5.4c-0.9-2.1-1.4-4.3-1.4-6.6c0-2.3,0.5-4.5,1.4-6.5
		c0.9-2.1,2.1-3.8,3.7-5.4c1.5-1.5,3.3-2.7,5.4-3.6c2.1-0.9,4.2-1.3,6.5-1.3h3.9c0.9,0,1.7,0.3,2.3,0.9c0.6,0.6,0.9,1.4,0.9,2.3
		c0,0.9-0.3,1.7-0.9,2.3c-0.6,0.6-1.4,1-2.3,1h-3.9c-1.4,0-2.8,0.3-4,0.8c-1.2,0.5-2.3,1.3-3.3,2.2c-0.9,0.9-1.7,2-2.2,3.3
		c-0.5,1.3-0.8,2.6-0.8,4c0,1.4,0.3,2.8,0.8,4c0.5,1.3,1.3,2.4,2.2,3.3c0.9,0.9,2,1.7,3.3,2.2c1.2,0.5,2.6,0.8,4,0.8h3.9
		C51.3,88.9,52,89.2,52.7,89.8z"/>
	<path class="st1" d="M69.6,61.8c2.7-0.5,5.4-0.3,8,0.6c2.6,0.8,4.9,2.2,6.8,4.2c1.6,1.6,2.8,3.4,3.7,5.5c0.9,2.1,1.3,4.3,1.2,6.5
		c0,1.8-0.3,3.5-0.9,5.2c-0.6,1.7-1.4,3.3-2.4,4.7c-1.7,2.3-3.9,4.1-6.5,5.3c-2.6,1.2-5.4,1.7-8.2,1.6c-1.5-0.1-2.9-0.4-4.3-0.9
		c-1.4-0.5-2.7-1.1-3.9-1.9c-1.2-0.8-2.3-1.8-3.3-2.8c-1-1.1-1.8-2.3-2.5-3.6c-0.6-1.3-1.1-2.6-1.4-4c-0.3-1.4-0.4-2.8-0.3-4.2
		c0.1-1.4,0.3-2.8,0.7-4.2c0.4-1.4,1-2.7,1.8-3.9c0.2-0.5,0.5-0.9,0.9-1.4h0.1c1.3-1.8,2.9-3.2,4.7-4.3C65.5,63,67.5,62.2,69.6,61.8
		z M81,84.4c0.7-1.1,1.3-2.3,1.6-3.5c0.3-1.3,0.4-2.5,0.2-3.8c-0.2-1.3-0.6-2.4-1.2-3.4c-0.7-1.3-1.6-2.3-2.7-3.3
		c-1.1-0.9-2.4-1.5-3.8-1.9c-1.4-0.4-2.8-0.5-4.2-0.3c-1.4,0.2-2.8,0.7-4,1.5c-1.6,1-2.8,2.4-3.7,4c-0.9,1.7-1.3,3.5-1.2,5.4
		c0.1,1.5,0.4,2.8,1.1,4.1c0.2,0.3,0.3,0.6,0.5,1c0.2,0.3,0.3,0.7,0.6,1c-0.3-0.5-0.6-1.1-0.9-1.6c0.6,1,1.3,1.9,2.2,2.7
		c0.9,0.8,1.9,1.4,2.9,1.9c1.1,0.5,2.3,0.8,3.5,0.8c1.2,0.1,2.4-0.1,3.6-0.5c1.1-0.4,2.2-0.9,3.1-1.6C79.5,86.2,80.3,85.4,81,84.4z"
		/>
	<path class="st3" d="M97,59.8c-0.9,0-1.7-0.3-2.3-1c-0.6-0.6-0.9-1.4-0.9-2.3c0-0.9,0.3-1.7,0.9-2.3c0.6-0.6,1.4-1,2.3-1
		c0.9,0,1.7,0.3,2.3,1c0.6,0.6,1,1.4,1,2.3c0,0.9-0.3,1.7-1,2.3C98.7,59.5,97.9,59.8,97,59.8z M97,63.8c0.9,0,1.7,0.3,2.3,1
		c0.6,0.6,1,1.4,1,2.3v13.5V81v0.3v1.4V92c0,0.9-0.3,1.7-1,2.3c-0.6,0.6-1.4,1-2.3,1c-0.9,0-1.7-0.3-2.3-1c-0.6-0.6-0.9-1.4-0.9-2.3
		v-9.3v-1.4V81v-0.4V67.1c0-0.9,0.3-1.7,0.9-2.3C95.3,64.1,96.1,63.8,97,63.8z"/>
	<path class="st3" d="M131.6,61.5c0.9,0,1.7,0.3,2.3,1c0.6,0.6,1,1.4,1,2.3v12v0.8v14.5l-0.1,0.1v0.2v0.2v0.2c0,0-0.1,0.1-0.1,0.2
		c0,0,0,0.1,0,0.1c0,0,0,0,0,0.1c0,0,0,0.1-0.1,0.1c0,0.1,0,0.2-0.1,0.2c0,0,0,0.1-0.1,0.1c0,0.1,0,0.1-0.1,0.2v0.1
		c0,0-0.1,0.1-0.1,0.1c0,0,0,0.1-0.1,0.1V94c0,0-0.1,0.1-0.1,0.1c0,0-0.1,0.1-0.1,0.1v0.1l-0.2,0.2l-0.1,0.1l-0.1,0.1
		c-0.1,0-0.2,0.1-0.3,0.2c-0.1,0-0.1,0.1-0.1,0.1c0,0-0.1,0-0.1,0.1h-0.1c-0.1,0.1-0.1,0.1-0.2,0.1c0,0-0.1,0-0.1,0.1
		c-0.1,0-0.1,0-0.1,0c0,0-0.1,0-0.1,0l-0.1,0.1c0,0-0.1,0-0.1,0c0,0-0.1,0-0.1,0h-0.1c0,0-0.1,0-0.1,0c0,0-0.1,0-0.1,0h-0.1h-0.2
		h-0.1h-0.1h-0.2h-0.2c0,0-0.1,0-0.1,0c0,0,0,0-0.1,0h-0.2c0,0-0.1-0.1-0.2-0.1c0,0-0.1,0-0.1,0c0,0,0,0-0.1,0s-0.1,0-0.1,0
		c0,0,0,0-0.1,0c0,0-0.1,0-0.1,0c0,0,0,0-0.1,0L130,95L130,95c-0.1,0-0.1,0-0.2-0.1l-0.1-0.1l-0.2-0.1c0,0,0-0.1,0-0.1
		c0,0,0,0,0-0.1c0,0-0.1,0-0.2-0.1l-0.1-0.1l-0.1-0.1l-18.6-20.9v3.4v0.8v14.5c0,0.9-0.3,1.7-0.9,2.3c-0.6,0.6-1.4,0.9-2.3,0.9
		c-0.9,0-1.7-0.3-2.3-0.9c-0.6-0.6-1-1.4-1-2.3V77.7v-0.8v-12v-0.1v-0.2l0.1-0.1c0.1-0.8,0.4-1.5,1.1-2.1c0.7-0.6,1.5-0.9,2.4-0.8
		c0.9,0,1.7,0.4,2.3,1.1l18.6,20.8v-5.8v-0.8v-12c0-0.9,0.3-1.7,0.9-2.3C129.9,61.9,130.7,61.5,131.6,61.5z"/>
</g>
<g>
	<g>
		<path class="st1" d="M215.2,74.4c-1.5,0-3-0.2-4.4-0.6c-1.4-0.4-2.7-0.9-3.9-1.7c-1.2-0.7-2.3-1.6-3.3-2.6c-1-1-1.8-2.1-2.5-3.3
			c-0.7-1.2-1.3-2.5-1.6-3.9c-0.4-1.4-0.6-2.9-0.6-4.4c0-1.5,0.2-3,0.6-4.4c0.4-1.4,0.9-2.7,1.6-3.9c0.7-1.2,1.6-2.3,2.5-3.3
			c1-1,2.1-1.9,3.3-2.6c1.2-0.7,2.5-1.3,3.9-1.7c1.4-0.4,2.9-0.6,4.4-0.6c2.3,0,4.4,0.4,6.4,1.3c2,0.9,3.7,2,5.2,3.5
			c1.5,1.5,2.7,3.2,3.5,5.2c0.9,2,1.3,4.1,1.3,6.4c0,2.3-0.4,4.4-1.3,6.4c-0.9,2-2,3.7-3.5,5.2c-1.5,1.5-3.2,2.7-5.2,3.5
			C219.6,74,217.4,74.4,215.2,74.4z M215.2,46.9c-1.5,0-3,0.3-4.3,0.9c-1.3,0.6-2.5,1.4-3.5,2.4c-1,1-1.8,2.2-2.4,3.5
			c-0.6,1.3-0.9,2.8-0.9,4.4s0.3,3,0.9,4.4c0.6,1.4,1.4,2.6,2.4,3.6c1,1,2.2,1.8,3.5,2.4c1.3,0.6,2.8,0.9,4.3,0.9
			c1.5,0,3-0.3,4.4-0.9c1.4-0.6,2.6-1.4,3.6-2.4c1-1,1.8-2.2,2.4-3.6c0.6-1.4,0.9-2.8,0.9-4.4s-0.3-3-0.9-4.4
			c-0.6-1.4-1.4-2.5-2.4-3.5c-1-1-2.2-1.8-3.6-2.4C218.2,47.2,216.7,46.9,215.2,46.9z"/>
	</g>
	<g>
		<path class="st1" d="M236.8,74.1c-0.7,0-1.3-0.2-1.8-0.7c-0.5-0.5-0.8-1.1-0.8-1.8V44.4c0-0.7,0.3-1.4,0.8-1.8
			c0.5-0.5,1.1-0.7,1.8-0.7h8.3c1.2,0,2.4,0.2,3.5,0.7c1.1,0.5,2,1.1,2.8,1.9c0.8,0.8,1.4,1.8,1.9,2.8c0.5,1.1,0.7,2.2,0.7,3.5
			c0,1.4-0.3,2.7-0.9,3.9c-0.4,0.8-0.9,1.6-1.6,2.3c1,0.8,1.8,1.7,2.5,2.8c0.8,1.4,1.3,3,1.3,4.8c0,1.4-0.3,2.7-0.8,3.8
			c-0.5,1.2-1.2,2.2-2.1,3c-0.9,0.9-2,1.5-3.2,2c-1.2,0.5-2.5,0.7-3.9,0.7H236.8z M245.2,68.9c0.7,0,1.3-0.1,1.9-0.4
			c0.6-0.3,1.1-0.6,1.5-1s0.8-0.9,1-1.5c0.2-0.6,0.4-1.1,0.4-1.8c0-0.6-0.1-1.2-0.4-1.8c-0.3-0.6-0.6-1-1-1.4c-0.4-0.4-1-0.7-1.5-1
			c-0.6-0.2-1.2-0.4-1.9-0.4h-5.8v9.2H245.2z M244.8,54.8c0.6,0,1.1-0.1,1.5-0.3c0.5-0.2,0.9-0.5,1.2-0.9c0.4-0.4,0.6-0.8,0.8-1.3
			c0.2-0.5,0.3-1,0.3-1.5c0-0.5-0.1-1-0.3-1.4c-0.2-0.5-0.5-0.9-0.8-1.2c-0.3-0.4-0.8-0.6-1.2-0.8c-0.5-0.2-1-0.3-1.5-0.3h-5.6v7.8
			H244.8z"/>
	</g>
	<g>
		<path class="st1" d="M276.3,74.1c-0.3,0-0.5,0-0.8-0.1c-0.6-0.2-1.2-0.6-1.5-1.2L267,61.1h-3.4v10.4c0,0.7-0.3,1.3-0.8,1.8
			c-0.5,0.5-1.1,0.7-1.8,0.7c-0.7,0-1.3-0.2-1.8-0.7c-0.5-0.5-0.8-1.1-0.8-1.8V44.4c0-0.7,0.3-1.4,0.8-1.8c0.5-0.5,1.1-0.7,1.8-0.7
			h8c1.4,0,2.7,0.2,3.9,0.7c1.2,0.5,2.3,1.2,3.2,2c0.9,0.9,1.6,1.9,2.1,3.1c0.5,1.2,0.8,2.5,0.8,3.8c0,1.1-0.2,2.2-0.5,3.3
			c-0.4,1-0.9,1.9-1.5,2.7c-0.7,0.8-1.4,1.5-2.3,2.1c-0.6,0.4-1.2,0.7-1.9,0.9l5.9,9.7c0.2,0.3,0.3,0.7,0.3,1c0,0.4,0,0.7-0.1,1
			c-0.1,0.3-0.3,0.6-0.5,0.9c-0.2,0.3-0.5,0.5-0.8,0.7C277.1,74,276.7,74.1,276.3,74.1z M269.1,55.9c0.7,0,1.3-0.1,1.8-0.4
			c0.6-0.2,1.1-0.6,1.5-1c0.4-0.4,0.8-0.9,1-1.4c0.2-0.6,0.4-1.1,0.4-1.7c0-0.6-0.1-1.2-0.4-1.7c-0.2-0.5-0.6-1-1-1.4
			c-0.4-0.4-0.9-0.7-1.5-0.9c-0.6-0.2-1.2-0.3-1.9-0.3h-5.4v8.9H269.1z"/>
	</g>
	<g>
		<path class="st1" d="M296.7,74.4c-1.5,0-3-0.2-4.4-0.6c-1.4-0.4-2.7-0.9-3.9-1.7c-1.2-0.7-2.3-1.6-3.3-2.6c-1-1-1.8-2.1-2.5-3.3
			c-0.7-1.2-1.3-2.5-1.6-3.9c-0.4-1.4-0.6-2.9-0.6-4.4c0-1.5,0.2-3,0.6-4.4c0.4-1.4,0.9-2.7,1.6-3.9c0.7-1.2,1.6-2.3,2.5-3.3
			c1-1,2.1-1.9,3.3-2.6c1.2-0.7,2.5-1.3,3.9-1.7c1.4-0.4,2.9-0.6,4.4-0.6c2.3,0,4.4,0.4,6.4,1.3c2,0.9,3.7,2,5.2,3.5
			c1.5,1.5,2.7,3.2,3.5,5.2c0.9,2,1.3,4.1,1.3,6.4c0,2.3-0.4,4.4-1.3,6.4c-0.9,2-2,3.7-3.5,5.2c-1.5,1.5-3.2,2.7-5.2,3.5
			C301.2,74,299,74.4,296.7,74.4z M296.7,46.9c-1.5,0-3,0.3-4.3,0.9c-1.3,0.6-2.5,1.4-3.5,2.4c-1,1-1.8,2.2-2.4,3.5
			c-0.6,1.3-0.9,2.8-0.9,4.4s0.3,3,0.9,4.4c0.6,1.4,1.4,2.6,2.4,3.6c1,1,2.2,1.8,3.5,2.4c1.3,0.6,2.8,0.9,4.3,0.9
			c1.5,0,3-0.3,4.4-0.9c1.4-0.6,2.6-1.4,3.6-2.4c1-1,1.8-2.2,2.4-3.6c0.6-1.4,0.9-2.8,0.9-4.4s-0.3-3-0.9-4.4
			c-0.6-1.4-1.4-2.5-2.4-3.5c-1-1-2.2-1.8-3.6-2.4C299.8,47.2,298.3,46.9,296.7,46.9z"/>
	</g>
	<g>
		<path class="st1" d="M188.6,74.4L188.6,74.4c-2.3,0-4.5-0.4-6.4-1.3c-1.9-0.8-3.7-2-5.2-3.5c-1.5-1.5-2.7-3.2-3.5-5.2
			c-0.8-2-1.3-4.1-1.3-6.4c0-1.5,0.2-2.8,0.5-4.2c0.4-1.4,0.9-2.7,1.6-3.9c0.6-1.2,1.5-2.3,2.5-3.4c1-1,2.1-1.9,3.3-2.7
			c1.2-0.7,2.5-1.3,4-1.7c1.4-0.4,2.9-0.6,4.5-0.6h6.7c0.7,0,1.4,0.3,1.8,0.8c0.5,0.5,0.7,1.1,0.7,1.9c0,0.7-0.2,1.3-0.7,1.8
			c-0.5,0.5-1.1,0.8-1.8,0.8h-6.7c-1.6,0-3,0.3-4.3,0.9c-1.4,0.6-2.6,1.4-3.6,2.4c-1,1-1.8,2.2-2.4,3.5c-0.6,1.3-0.9,2.8-0.9,4.4
			c0,1.5,0.3,3,0.8,4.3c0.6,1.4,1.3,2.6,2.3,3.6c1,1,2.2,1.9,3.5,2.5c1.3,0.6,2.8,0.9,4.4,0.9h0.1l0,0h6.7c0.7,0,1.4,0.3,1.8,0.8
			c0.5,0.5,0.7,1.1,0.7,1.8c0,0.7-0.2,1.3-0.7,1.8c-0.5,0.5-1.1,0.8-1.8,0.8L188.6,74.4z"/>
	</g>
</g>
<g>
	<g>
		<path class="st1" d="M224.9,119.7c-0.5,0-0.9-0.1-1.3-0.4c-0.5-0.3-0.8-0.7-1.1-1.2l-7.4-18.2l-2.3,17.4c-0.1,0.7-0.5,1.3-1,1.7
			c-0.4,0.3-1,0.5-1.5,0.5c-0.1,0-0.3,0-0.4,0c-0.7-0.1-1.3-0.4-1.7-1c-0.4-0.6-0.6-1.2-0.5-1.9l3.6-26.8c0.1-0.7,0.4-1.2,0.9-1.6
			c0.1-0.1,0.2-0.2,0.3-0.2c0.1-0.1,0.3-0.1,0.4-0.2c0.3-0.1,0.7-0.2,1-0.2c0.3,0,0.6,0.1,1,0.2c0.7,0.3,1.1,0.7,1.4,1.4l8.7,21.3
			l8.6-21.2c0.3-0.7,0.8-1.1,1.4-1.4c0.3-0.1,0.6-0.2,1-0.2c0.3,0,0.6,0.1,1,0.2l0.3,0.1c0.4,0.2,0.7,0.4,1,0.8
			c0.3,0.4,0.4,0.8,0.5,1.2l3.4,26.9c0.1,0.7-0.1,1.4-0.5,1.9c-0.4,0.5-1,0.9-1.7,1c-0.1,0-0.2,0-0.4,0c-0.6,0-1.1-0.2-1.6-0.5
			c-0.6-0.4-0.9-1-1-1.8l-2.2-17.3l-7.4,18.1c-0.2,0.5-0.5,0.9-0.9,1.1c-0.4,0.3-0.8,0.4-1.3,0.5C225,119.7,225,119.7,224.9,119.7z"
			/>
	</g>
	<g>
		<path class="st1" d="M246.5,119.7c-0.7,0-1.4-0.3-1.8-0.8c-0.4-0.5-0.7-1.1-0.7-1.8V90c0-0.7,0.3-1.4,0.8-1.9
			c0.5-0.5,1.1-0.7,1.9-0.7h13.4c0.7,0,1.4,0.3,1.8,0.8c0.5,0.5,0.7,1.1,0.7,1.8c0,0.7-0.2,1.3-0.7,1.8c-0.5,0.5-1.1,0.8-1.8,0.8
			h-10.8v8.4c0,0,7.7,0,7.7,0c0.8,0,1.4,0.3,1.8,0.7c0.5,0.5,0.8,1.1,0.8,1.8c0,0.7-0.3,1.3-0.8,1.8c-0.5,0.5-1.1,0.7-1.8,0.7h-7.7
			v8.4h10.8c0.7,0,1.4,0.3,1.8,0.8c0.5,0.5,0.7,1.1,0.7,1.8c0,0.7-0.2,1.3-0.7,1.8c-0.5,0.5-1.1,0.8-1.8,0.8L246.5,119.7z"/>
	</g>
	<g>
		<g>
			<path class="st1" d="M268.1,119.7c-0.7,0-1.3-0.3-1.8-0.7c-0.5-0.5-0.8-1.1-0.8-1.8V90c0-0.7,0.3-1.4,0.8-1.8
				c0.5-0.5,1.1-0.7,1.8-0.7h5.2c2.3,0,4.4,0.4,6.4,1.2c2,0.8,3.7,2,5.2,3.4c1.5,1.5,2.7,3.2,3.5,5.1c0.9,2,1.3,4.1,1.3,6.4
				c0,1.5-0.2,3-0.6,4.3c-0.4,1.4-0.9,2.7-1.6,3.9c-0.7,1.2-1.6,2.3-2.6,3.2c-1,1-2.1,1.8-3.3,2.5c-1.2,0.7-2.5,1.2-3.9,1.6
				c-1.4,0.4-2.8,0.6-4.3,0.6H268.1z M273.3,114.5c1.5,0,3-0.3,4.4-0.8c1.4-0.5,2.6-1.3,3.6-2.3c1-1,1.8-2.1,2.4-3.4
				c0.6-1.3,0.9-2.8,0.9-4.3c0-1.5-0.3-3-0.9-4.3c-0.6-1.3-1.4-2.5-2.4-3.5c-1-1-2.2-1.8-3.6-2.3c-1.4-0.6-2.8-0.8-4.4-0.8h-2.6
				v21.8H273.3z"/>
		</g>
	</g>
	<g>
		<g>
			<path class="st1" d="M325.9,119.7c-0.3,0-0.6-0.1-0.9-0.2c-0.7-0.3-1.2-0.7-1.5-1.4l-3.3-7.7H308l-3.2,7.7
				c-0.3,0.7-0.8,1.2-1.4,1.4c-0.3,0.1-0.6,0.2-0.9,0.2c-0.4,0-0.7-0.1-1.1-0.2c-0.7-0.3-1.1-0.8-1.4-1.5c-0.2-0.6-0.2-1.3,0.1-2
				l11.7-27c0.4-1,1.3-1.6,2.4-1.6c0.5,0,1,0.1,1.4,0.4c0.4,0.3,0.8,0.7,1,1.1l11.6,27.1c0.3,0.6,0.3,1.3,0.1,1.9
				c-0.2,0.7-0.7,1.2-1.3,1.5C326.6,119.6,326.2,119.7,325.9,119.7z M318,105.2l-3.9-9.2l-3.9,9.2H318z"/>
		</g>
	</g>
	<g>
		<path class="st1" d="M334.2,119.7c-0.7,0-1.4-0.3-1.8-0.8c-0.5-0.5-0.7-1.1-0.7-1.8V92.6h-6.3c-0.7,0-1.4-0.3-1.9-0.8
			c-0.5-0.5-0.7-1.1-0.7-1.8c0-0.7,0.3-1.3,0.7-1.8c0.5-0.5,1.1-0.7,1.8-0.7h17.8c0.7,0,1.4,0.3,1.9,0.8c0.5,0.5,0.7,1.1,0.7,1.9
			c0,0.7-0.3,1.4-0.8,1.8c-0.5,0.5-1.1,0.7-1.8,0.7h-6.4v24.5c0,0.7-0.3,1.3-0.8,1.8C335.6,119.4,334.9,119.7,334.2,119.7z"/>
	</g>
	<g>
		<g>
			<path class="st1" d="M360,120c-1.5,0-3-0.2-4.4-0.6c-1.4-0.4-2.7-0.9-3.9-1.7c-1.2-0.7-2.3-1.6-3.3-2.6c-1-1-1.8-2.1-2.5-3.3
				c-0.7-1.2-1.3-2.5-1.6-3.9c-0.4-1.4-0.6-2.9-0.6-4.4s0.2-3,0.6-4.4c0.4-1.4,0.9-2.7,1.6-3.9c0.7-1.2,1.6-2.3,2.5-3.3
				c1-1,2.1-1.9,3.3-2.6c1.2-0.7,2.5-1.3,3.9-1.7c1.4-0.4,2.9-0.6,4.4-0.6c2.3,0,4.4,0.4,6.4,1.3c2,0.9,3.7,2,5.2,3.5
				c1.5,1.5,2.7,3.2,3.5,5.2c0.9,2,1.3,4.1,1.3,6.4c0,2.3-0.4,4.4-1.3,6.4c-0.9,2-2,3.7-3.5,5.2c-1.5,1.5-3.2,2.7-5.2,3.5
				C364.4,119.5,362.2,120,360,120z M360,92.4c-1.5,0-3,0.3-4.3,0.9c-1.3,0.6-2.5,1.4-3.5,2.4c-1,1-1.8,2.2-2.4,3.5
				c-0.6,1.3-0.9,2.8-0.9,4.4s0.3,3,0.9,4.4c0.6,1.4,1.4,2.6,2.4,3.6c1,1,2.2,1.8,3.5,2.4c1.3,0.6,2.8,0.9,4.3,0.9
				c1.5,0,3-0.3,4.4-0.9c1.4-0.6,2.6-1.4,3.6-2.4c1-1,1.8-2.2,2.4-3.6c0.6-1.4,0.9-2.8,0.9-4.4s-0.3-3-0.9-4.4
				c-0.6-1.4-1.4-2.5-2.4-3.5c-1-1-2.2-1.8-3.6-2.4C363,92.7,361.5,92.4,360,92.4z"/>
		</g>
	</g>
	<g>
		<g>
			<g>
				<path class="st1" d="M174.9,119.7c-0.7,0-1.3-0.3-1.8-0.7c-0.5-0.5-0.8-1.1-0.8-1.8V91.8c0-0.7,0.3-1.4,0.8-1.9
					c0.5-0.5,1.1-0.7,1.8-0.7s1.3,0.3,1.8,0.7c0.5,0.5,0.8,1.1,0.8,1.8v25.2c0,0.7-0.3,1.4-0.8,1.8
					C176.2,119.4,175.6,119.7,174.9,119.7z"/>
			</g>
			<g>
				<path class="st2" d="M174.9,87.8c-1.4,0-2.6-1.2-2.6-2.6s1.2-2.6,2.6-2.6c1.4,0,2.6,1.2,2.6,2.6S176.3,87.8,174.9,87.8z"/>
			</g>
		</g>
	</g>
	<g>
		<g>
			<g>
				<path class="st1" d="M294.7,119.6c-0.7,0-1.3-0.3-1.8-0.7c-0.5-0.5-0.8-1.1-0.8-1.8V91.7c0-0.7,0.3-1.4,0.8-1.9
					c0.5-0.5,1.1-0.7,1.8-0.7c0.7,0,1.3,0.3,1.8,0.7c0.5,0.5,0.8,1.1,0.8,1.8V117c0,0.7-0.3,1.4-0.8,1.8
					C296.1,119.3,295.4,119.6,294.7,119.6z"/>
			</g>
			<g>
				<path class="st2" d="M294.7,87.6c-1.4,0-2.6-1.2-2.6-2.6s1.2-2.6,2.6-2.6c1.4,0,2.6,1.2,2.6,2.6S296.2,87.6,294.7,87.6z"/>
			</g>
		</g>
	</g>
	<g>
		<g>
			<g>
				<path class="st1" d="M204,119.7c-0.7,0-1.3-0.2-1.8-0.7c-0.2-0.2-0.5-0.5-0.6-0.7l-16.1-20.7v19.5c0,0.7-0.3,1.4-0.8,1.8
					c-0.5,0.5-1.1,0.7-1.8,0.7c-0.7,0-1.3-0.3-1.8-0.7c-0.5-0.5-0.8-1.1-0.8-1.8l0-27.2l0-0.2c0-0.2,0-0.3,0.1-0.5
					c0-0.1,0.1-0.2,0.1-0.3c0-0.1,0.1-0.2,0.2-0.3c0.1-0.2,0.3-0.4,0.6-0.7c0.1-0.1,0.3-0.2,0.6-0.3c0.3-0.1,0.6-0.2,0.9-0.2l0.1,0
					c0.3,0,0.7,0.1,1.1,0.2c0.3,0.1,0.6,0.3,0.8,0.5c0.1,0,0.2,0.2,16.7,21.5V90c0-0.7,0.3-1.4,0.8-1.8c0.5-0.5,1.1-0.7,1.8-0.7
					c0.7,0,1.3,0.3,1.8,0.7c0.5,0.5,0.8,1.1,0.8,1.8v27.1c0,0.7-0.3,1.4-0.8,1.8C205.3,119.4,204.7,119.7,204,119.7z"/>
			</g>
		</g>
	</g>
</g>
</svg>
